solid vcg
  facet normal -1.000000e+00 -0.000000e+00 -0.000000e+00
    outer loop
      vertex  -4.950000e-02  4.950000e-02  4.735000e-03
      vertex  -4.950000e-02  4.950000e-02 -4.735000e-03
      vertex  -4.950000e-02 -4.950000e-02  4.735000e-03
    endloop
  endfacet
  facet normal -1.000000e+00  0.000000e+00  0.000000e+00
    outer loop
      vertex  -4.950000e-02 -4.950000e-02  4.735000e-03
      vertex  -4.950000e-02  4.950000e-02 -4.735000e-03
      vertex  -4.950000e-02 -4.950000e-02 -4.735000e-03
    endloop
  endfacet
  facet normal  0.000000e+00  0.000000e+00  1.000000e+00
    outer loop
      vertex   4.950000e-02  4.950000e-02  4.735000e-03
      vertex  -4.950000e-02  4.950000e-02  4.735000e-03
      vertex   4.950000e-02 -4.950000e-02  4.735000e-03
    endloop
  endfacet
  facet normal  0.000000e+00  0.000000e+00  1.000000e+00
    outer loop
      vertex   4.950000e-02 -4.950000e-02  4.735000e-03
      vertex  -4.950000e-02  4.950000e-02  4.735000e-03
      vertex  -4.950000e-02 -4.950000e-02  4.735000e-03
    endloop
  endfacet
  facet normal  1.000000e+00  0.000000e+00 -0.000000e+00
    outer loop
      vertex   4.950000e-02  4.950000e-02 -4.735000e-03
      vertex   4.950000e-02  4.950000e-02  4.735000e-03
      vertex   4.950000e-02 -4.950000e-02 -4.735000e-03
    endloop
  endfacet
  facet normal  1.000000e+00  0.000000e+00  0.000000e+00
    outer loop
      vertex   4.950000e-02 -4.950000e-02 -4.735000e-03
      vertex   4.950000e-02  4.950000e-02  4.735000e-03
      vertex   4.950000e-02 -4.950000e-02  4.735000e-03
    endloop
  endfacet
  facet normal  0.000000e+00  0.000000e+00 -1.000000e+00
    outer loop
      vertex  -4.950000e-02  4.950000e-02 -4.735000e-03
      vertex   4.950000e-02  4.950000e-02 -4.735000e-03
      vertex  -4.950000e-02 -4.950000e-02 -4.735000e-03
    endloop
  endfacet
  facet normal  0.000000e+00  0.000000e+00 -1.000000e+00
    outer loop
      vertex  -4.950000e-02 -4.950000e-02 -4.735000e-03
      vertex   4.950000e-02  4.950000e-02 -4.735000e-03
      vertex   4.950000e-02 -4.950000e-02 -4.735000e-03
    endloop
  endfacet
  facet normal  0.000000e+00  1.000000e+00  0.000000e+00
    outer loop
      vertex   4.950000e-02  4.950000e-02  4.735000e-03
      vertex   4.950000e-02  4.950000e-02 -4.735000e-03
      vertex  -4.950000e-02  4.950000e-02  4.735000e-03
    endloop
  endfacet
  facet normal  0.000000e+00  1.000000e+00  0.000000e+00
    outer loop
      vertex  -4.950000e-02  4.950000e-02  4.735000e-03
      vertex   4.950000e-02  4.950000e-02 -4.735000e-03
      vertex  -4.950000e-02  4.950000e-02 -4.735000e-03
    endloop
  endfacet
  facet normal  0.000000e+00 -1.000000e+00  0.000000e+00
    outer loop
      vertex   4.950000e-02 -4.950000e-02 -4.735000e-03
      vertex   4.950000e-02 -4.950000e-02  4.735000e-03
      vertex  -4.950000e-02 -4.950000e-02 -4.735000e-03
    endloop
  endfacet
  facet normal  0.000000e+00 -1.000000e+00  0.000000e+00
    outer loop
      vertex  -4.950000e-02 -4.950000e-02 -4.735000e-03
      vertex   4.950000e-02 -4.950000e-02  4.735000e-03
      vertex  -4.950000e-02 -4.950000e-02  4.735000e-03
    endloop
  endfacet
endsolid vcg
