  0
SECTION
  2
HEADER
  9
$ACADVER
  1
AC1009
  9
$DWGCODEPAGE
  3
ansi_1252
  9
$INSBASE
 10
0.0
 20
0.0
 30
0.0
  9
$EXTMIN
 10
0.0
 20
0.0
 30
0.0
  9
$EXTMAX
 10
965.2
 20
736.6
 30
0.0
  9
$LIMMIN
 10
0.0
 20
0.0
  9
$LIMMAX
 10
965.2
 20
736.6
  9
$ORTHOMODE
 70
     0
  9
$REGENMODE
 70
     1
  9
$FILLMODE
 70
     1
  9
$QTEXTMODE
 70
     0
  9
$MIRRTEXT
 70
     1
  9
$DRAGMODE
 70
     2
  9
$LTSCALE
 40
1.0
  9
$OSMODE
 70
    37
  9
$ATTMODE
 70
     1
  9
$TEXTSIZE
 40
3.5
  9
$TRACEWID
 40
1.0
  9
$TEXTSTYLE
  7
STANDARD
  9
$CLAYER
  8
0
  9
$CELTYPE
  6
BYLAYER
  9
$CECOLOR
 62
   256
  9
$DIMSCALE
 40
1.0
  9
$DIMASZ
 40
3.556
  9
$DIMEXO
 40
1.0
  9
$DIMDLI
 40
3.75
  9
$DIMRND
 40
0.0
  9
$DIMDLE
 40
0.0
  9
$DIMEXE
 40
1.0
  9
$DIMTP
 40
0.0
  9
$DIMTM
 40
0.0
  9
$DIMTXT
 40
3.5
  9
$DIMCEN
 40
2.5
  9
$DIMTSZ
 40
0.0
  9
$DIMTOL
 70
     0
  9
$DIMLIM
 70
     0
  9
$DIMTIH
 70
     1
  9
$DIMTOH
 70
     1
  9
$DIMSE1
 70
     0
  9
$DIMSE2
 70
     0
  9
$DIMTAD
 70
     1
  9
$DIMZIN
 70
     0
  9
$DIMBLK
  1

  9
$DIMASO
 70
     1
  9
$DIMSHO
 70
     1
  9
$DIMPOST
  1

  9
$DIMAPOST
  1

  9
$DIMALT
 70
     0
  9
$DIMALTD
 70
     3
  9
$DIMALTF
 40
0.0393700787
  9
$DIMLFAC
 40
1.0
  9
$DIMTOFL
 70
     1
  9
$DIMTVP
 40
0.0
  9
$DIMTIX
 70
     0
  9
$DIMSOXD
 70
     0
  9
$DIMSAH
 70
     0
  9
$DIMBLK1
  1

  9
$DIMBLK2
  1

  9
$DIMSTYLE
  2
ISO-25
  9
$DIMCLRD
 70
     0
  9
$DIMCLRE
 70
     0
  9
$DIMCLRT
 70
     0
  9
$DIMTFAC
 40
1.0
  9
$DIMGAP
 40
1.524
  9
$LUNITS
 70
     2
  9
$LUPREC
 70
     2
  9
$SKETCHINC
 40
1.0
  9
$FILLETRAD
 40
10.0
  9
$AUNITS
 70
     0
  9
$AUPREC
 70
     2
  9
$MENU
  1
.
  9
$ELEVATION
 40
0.0
  9
$PELEVATION
 40
0.0
  9
$THICKNESS
 40
0.0
  9
$LIMCHECK
 70
     0
  9
$CHAMFERA
 40
0.0
  9
$CHAMFERB
 40
0.0
  9
$SKPOLY
 70
     0
  9
$TDCREATE
 40
2457247.466234421
  9
$TDUPDATE
 40
2457247.466235498
  9
$TDINDWG
 40
0.0000000116
  9
$TDUSRTIMER
 40
0.0000000116
  9
$USRTIMER
 70
     1
  9
$ANGBASE
 50
0.0
  9
$ANGDIR
 70
     0
  9
$PDMODE
 70
     0
  9
$PDSIZE
 40
-1.0
  9
$PLINEWID
 40
0.0
  9
$COORDS
 70
     1
  9
$SPLFRAME
 70
     0
  9
$SPLINETYPE
 70
     6
  9
$SPLINESEGS
 70
     8
  9
$ATTDIA
 70
     0
  9
$ATTREQ
 70
     1
  9
$HANDLING
 70
     1
  9
$HANDSEED
  5
26E
  9
$SURFTAB1
 70
     6
  9
$SURFTAB2
 70
     6
  9
$SURFTYPE
 70
     6
  9
$SURFU
 70
     6
  9
$SURFV
 70
     6
  9
$UCSNAME
  2

  9
$UCSORG
 10
0.0
 20
0.0
 30
0.0
  9
$UCSXDIR
 10
1.0
 20
0.0
 30
0.0
  9
$UCSYDIR
 10
0.0
 20
1.0
 30
0.0
  9
$PUCSNAME
  2

  9
$PUCSORG
 10
0.0
 20
0.0
 30
0.0
  9
$PUCSXDIR
 10
1.0
 20
0.0
 30
0.0
  9
$PUCSYDIR
 10
0.0
 20
1.0
 30
0.0
  9
$USERI1
 70
     0
  9
$USERI2
 70
     0
  9
$USERI3
 70
     0
  9
$USERI4
 70
     0
  9
$USERI5
 70
     0
  9
$USERR1
 40
0.0
  9
$USERR2
 40
0.0
  9
$USERR3
 40
0.0
  9
$USERR4
 40
0.0
  9
$USERR5
 40
0.0
  9
$WORLDVIEW
 70
     1
  9
$SHADEDGE
 70
     3
  9
$SHADEDIF
 70
    70
  9
$TILEMODE
 70
     1
  9
$MAXACTVP
 70
    64
  9
$PLIMCHECK
 70
     0
  9
$PEXTMIN
 10
1.0000000000E+20
 20
1.0000000000E+20
 30
1.0000000000E+20
  9
$PEXTMAX
 10
-1.0000000000E+20
 20
-1.0000000000E+20
 30
-1.0000000000E+20
  9
$PLIMMIN
 10
0.0
 20
0.0
  9
$PLIMMAX
 10
420.0
 20
297.0
  9
$UNITMODE
 70
     0
  9
$VISRETAIN
 70
     1
  9
$PLINEGEN
 70
     0
  9
$PSLTSCALE
 70
     1
  0
ENDSEC
  0
SECTION
  2
TABLES
  0
TABLE
  2
VPORT
 70
     1
  0
VPORT
  2
*ACTIVE
 70
     0
 10
0.0
 20
0.0
 11
1.0
 21
1.0
 12
482.6
 22
368.3
 13
0.0
 23
0.0
 14
10.0
 24
10.0
 15
10.0
 25
10.0
 16
0.0
 26
0.0
 36
1.0
 17
0.0
 27
0.0
 37
0.0
 40
736.6
 41
1.3103448276
 42
50.0
 43
0.0
 44
0.0
 50
0.0
 51
0.0
 71
     0
 72
  2000
 73
     1
 74
     3
 75
     0
 76
     0
 77
     0
 78
     0
  0
ENDTAB
  0
TABLE
  2
LTYPE
 70
     6
  0
LTYPE
  2
CONTINUOUS
 70
     0
  3
Solid line
 72
    65
 73
     0
 40
0.0
  0
LTYPE
  2
HIDDEN
 70
     0
  3
Hidden __ __ __ __ __ __ __ __ __ __ __ __ __ __
 72
    65
 73
     2
 40
1.905
 49
1.27
 49
-0.635
  0
LTYPE
  2
PHANTOM
 70
     0
  3
Phantom ______  __  __  ______  __  __  ______
 72
    65
 73
     6
 40
12.7
 49
6.35
 49
-1.27
 49
1.27
 49
-1.27
 49
1.27
 49
-1.27
  0
LTYPE
  2
CENTER
 70
     0
  3
Center ____ _ ____ _ ____ _ ____ _ ____ _ ____
 72
    65
 73
     4
 40
10.16
 49
6.35
 49
-1.27
 49
1.27
 49
-1.27
  0
LTYPE
  2
CENTERX2
 70
     0
  3
Center (2x) ________  __  ________  __  _____
 72
    65
 73
     4
 40
20.32
 49
12.7
 49
-2.54
 49
2.54
 49
-2.54
  0
LTYPE
  2
DOT2
 70
     0
  3
Dot (.5x) ........................................
 72
    65
 73
     2
 40
0.635
 49
0.0
 49
-0.635
  0
ENDTAB
  0
TABLE
  2
LAYER
 70
     1
  0
LAYER
  2
0
 70
     0
 62
     7
  6
CONTINUOUS
  0
ENDTAB
  0
TABLE
  2
STYLE
 70
     1
  0
STYLE
  2
STANDARD
 70
     0
 40
0.0
 41
1.0
 50
0.0
 71
     0
 42
3.5
  3
txt
  4

  0
ENDTAB
  0
TABLE
  2
VIEW
 70
     0
  0
ENDTAB
  0
TABLE
  2
UCS
 70
     0
  0
ENDTAB
  0
TABLE
  2
APPID
 70
     1
  0
APPID
  2
ACAD
 70
     0
  0
ENDTAB
  0
TABLE
  2
DIMSTYLE
 70
     1
  0
DIMSTYLE
  2
ISO-25
 70
     0
  3

  4

  5

  6

  7

 40
1.0
 41
2.5
 42
0.625
 43
3.75
 44
1.25
 45
0.0
 46
0.0
 47
0.0
 48
0.0
140
2.5
141
2.5
142
0.0
143
0.0393700787
144
1.0
145
0.0
146
1.0
147
0.625
 71
     0
 72
     0
 73
     0
 74
     0
 75
     0
 76
     0
 77
     1
 78
     8
170
     0
171
     3
172
     1
173
     0
174
     0
175
     0
176
     0
177
     0
178
     0
  0
ENDTAB
  0
ENDSEC
  0
SECTION
  2
BLOCKS
  0
BLOCK
  8
0
  2
$MODEL_SPACE
 70
     0
 10
0.0
 20
0.0
 30
0.0
  3
$MODEL_SPACE
  1

  0
ENDBLK
  5
21
  8
0
  0
BLOCK
 67
     1
  8
0
  2
$PAPER_SPACE
 70
     0
 10
0.0
 20
0.0
 30
0.0
  3
$PAPER_SPACE
  1

  0
ENDBLK
  5
1D
 67
     1
  8
0
  0
ENDSEC
  0
SECTION
  2
ENTITIES
  0
CIRCLE
  5
6F
  8
0
  6
CONTINUOUS
 62
     7
 10
66.6162778294
 20
574.7554845868
 30
0.0
 40
1.0
  0
CIRCLE
  5
70
  8
0
  6
CONTINUOUS
 62
     7
 10
87.829481265
 20
553.5422811512
 30
0.0
 40
1.0
  0
CIRCLE
  5
71
  8
0
  6
CONTINUOUS
 62
     7
 10
57.829481265
 20
583.5422811512
 30
0.0
 40
52.42640687119376
  0
CIRCLE
  5
72
  8
0
  6
CONTINUOUS
 62
     7
 10
27.829481265
 20
553.5422811512
 30
0.0
 40
1.0
  0
CIRCLE
  5
73
  8
0
  6
CONTINUOUS
 62
     7
 10
27.829481265
 20
613.5422811512
 30
0.0
 40
1.0
  0
CIRCLE
  5
74
  8
0
  6
CONTINUOUS
 62
     7
 10
186.9319426569
 20
575.0778862681
 30
0.0
 40
1.0
  0
CIRCLE
  5
75
  8
0
  6
CONTINUOUS
 62
     7
 10
208.1451460925
 20
553.8646828325
 30
0.0
 40
1.0
  0
POLYLINE
  5
76
  8
0
  6
CONTINUOUS
 62
     7
 66
     1
 10
0.0
 20
0.0
 30
0.0
 70
   128
  0
VERTEX
  5
BC
  8
0
  6
CONTINUOUS
 62
     7
 10
243.6781582442
 20
583.8646828325
 30
0.0
  0
VERTEX
  5
BD
  8
0
  6
CONTINUOUS
 62
     7
 10
243.6206695643
 20
586.0600730066
 30
0.0
  0
VERTEX
  5
BE
  8
0
  6
CONTINUOUS
 62
     7
 10
243.448322734
 20
588.2516116963
 30
0.0
  0
VERTEX
  5
BF
  8
0
  6
CONTINUOUS
 62
     7
 10
243.1614083258
 20
590.4354537034
 30
0.0
  0
VERTEX
  5
C0
  8
0
  6
CONTINUOUS
 62
     7
 10
242.7604329792
 20
592.6077687309
 30
0.0
  0
VERTEX
  5
C1
  8
0
  6
CONTINUOUS
 62
     7
 10
242.2461044994
 20
594.7647453414
 30
0.0
  0
VERTEX
  5
C2
  8
0
  6
CONTINUOUS
 62
     7
 10
241.6193169561
 20
596.9026000367
 30
0.0
  0
VERTEX
  5
C3
  8
0
  6
CONTINUOUS
 62
     7
 10
240.8811730352
 20
599.0175814496
 30
0.0
  0
VERTEX
  5
C4
  8
0
  6
CONTINUOUS
 62
     7
 10
240.0329691378
 20
601.1059801222
 30
0.0
  0
VERTEX
  5
C5
  8
0
  6
CONTINUOUS
 62
     7
 10
239.0761953798
 20
603.1641303689
 30
0.0
  0
VERTEX
  5
C6
  8
0
  6
CONTINUOUS
 62
     7
 10
238.0125281421
 20
605.1884233148
 30
0.0
  0
VERTEX
  5
C7
  8
0
  6
CONTINUOUS
 62
     7
 10
236.8438337949
 20
607.1753068955
 30
0.0
  0
VERTEX
  5
C8
  8
0
  6
CONTINUOUS
 62
     7
 10
235.5721575228
 20
609.1212961019
 30
0.0
  0
VERTEX
  5
C9
  8
0
  6
CONTINUOUS
 62
     7
 10
234.1997382251
 20
611.0229767055
 30
0.0
  0
VERTEX
  5
CA
  8
0
  6
CONTINUOUS
 62
     7
 10
232.7289824394
 20
612.8770127089
 30
0.0
  0
VERTEX
  5
CB
  8
0
  6
CONTINUOUS
 62
     7
 10
231.1624643412
 20
614.6801519335
 30
0.0
  0
VERTEX
  5
CC
  8
0
  6
CONTINUOUS
 62
     7
 10
229.5029369202
 20
616.4292297454
 30
0.0
  0
VERTEX
  5
CD
  8
0
  6
CONTINUOUS
 62
     7
 10
227.7533096281
 20
618.1211783678
 30
0.0
  0
VERTEX
  5
CE
  8
0
  6
CONTINUOUS
 62
     7
 10
225.916652104
 20
619.7530268819
 30
0.0
  0
VERTEX
  5
CF
  8
0
  6
CONTINUOUS
 62
     7
 10
223.9961904493
 20
621.32191799
 30
0.0
  0
VERTEX
  5
D0
  8
0
  6
CONTINUOUS
 62
     7
 10
221.9952886012
 20
622.8250949771
 30
0.0
  0
VERTEX
  5
D1
  8
0
  6
CONTINUOUS
 62
     7
 10
219.9174595085
 20
624.2599240632
 30
0.0
  0
VERTEX
  5
D2
  8
0
  6
CONTINUOUS
 62
     7
 10
217.766346505
 20
625.6238832266
 30
0.0
  0
VERTEX
  5
D3
  8
0
  6
CONTINUOUS
 62
     7
 10
215.5457233098
 20
626.9145845563
 30
0.0
  0
VERTEX
  5
D4
  8
0
  6
CONTINUOUS
 62
     7
 10
213.2594865766
 20
628.1297630758
 30
0.0
  0
VERTEX
  5
D5
  8
0
  6
CONTINUOUS
 62
     7
 10
210.9116521684
 20
629.2672841938
 30
0.0
  0
VERTEX
  5
D6
  8
0
  6
CONTINUOUS
 62
     7
 10
208.5063290802
 20
630.3251511545
 30
0.0
  0
VERTEX
  5
D7
  8
0
  6
CONTINUOUS
 62
     7
 10
206.047743654
 20
631.3015124888
 30
0.0
  0
VERTEX
  5
D8
  8
0
  6
CONTINUOUS
 62
     7
 10
203.5402079132
 20
632.1946545632
 30
0.0
  0
VERTEX
  5
D9
  8
0
  6
CONTINUOUS
 62
     7
 10
200.9881214258
 20
633.0030090303
 30
0.0
  0
VERTEX
  5
DA
  8
0
  6
CONTINUOUS
 62
     7
 10
198.395960128
 20
633.72516028
 30
0.0
  0
VERTEX
  5
DB
  8
0
  6
CONTINUOUS
 62
     7
 10
195.7682707367
 20
634.3598342628
 30
0.0
  0
VERTEX
  5
DC
  8
0
  6
CONTINUOUS
 62
     7
 10
193.1096651611
 20
634.905928293
 30
0.0
  0
VERTEX
  5
DD
  8
0
  6
CONTINUOUS
 62
     7
 10
190.4248074648
 20
635.3624737949
 30
0.0
  0
VERTEX
  5
DE
  8
0
  6
CONTINUOUS
 62
     7
 10
187.7184064147
 20
635.7286772819
 30
0.0
  0
VERTEX
  5
DF
  8
0
  6
CONTINUOUS
 62
     7
 10
184.9952108246
 20
636.0038905532
 30
0.0
  0
VERTEX
  5
E0
  8
0
  6
CONTINUOUS
 62
     7
 10
182.2599979137
 20
636.1876367719
 30
0.0
  0
VERTEX
  5
E1
  8
0
  6
CONTINUOUS
 62
     7
 10
179.5175658559
 20
636.2795918376
 30
0.0
  0
VERTEX
  5
E2
  8
0
  6
CONTINUOUS
 62
     7
 10
176.7727263291
 20
636.2795918376
 30
0.0
  0
VERTEX
  5
E3
  8
0
  6
CONTINUOUS
 62
     7
 10
174.0302942713
 20
636.1876367719
 30
0.0
  0
VERTEX
  5
E4
  8
0
  6
CONTINUOUS
 62
     7
 10
171.2950813604
 20
636.0038905532
 30
0.0
  0
VERTEX
  5
E5
  8
0
  6
CONTINUOUS
 62
     7
 10
168.5718857703
 20
635.7286772819
 30
0.0
  0
VERTEX
  5
E6
  8
0
  6
CONTINUOUS
 62
     7
 10
165.8654847202
 20
635.3624737949
 30
0.0
  0
VERTEX
  5
E7
  8
0
  6
CONTINUOUS
 62
     7
 10
163.1806270239
 20
634.905928293
 30
0.0
  0
VERTEX
  5
E8
  8
0
  6
CONTINUOUS
 62
     7
 10
160.5220214483
 20
634.3598342628
 30
0.0
  0
VERTEX
  5
E9
  8
0
  6
CONTINUOUS
 62
     7
 10
157.894332057
 20
633.72516028
 30
0.0
  0
VERTEX
  5
EA
  8
0
  6
CONTINUOUS
 62
     7
 10
155.3021707592
 20
633.0030090303
 30
0.0
  0
VERTEX
  5
EB
  8
0
  6
CONTINUOUS
 62
     7
 10
152.7500842718
 20
632.1946545632
 30
0.0
  0
VERTEX
  5
EC
  8
0
  6
CONTINUOUS
 62
     7
 10
150.242548531
 20
631.3015124888
 30
0.0
  0
VERTEX
  5
ED
  8
0
  6
CONTINUOUS
 62
     7
 10
147.7839631048
 20
630.3251511545
 30
0.0
  0
VERTEX
  5
EE
  8
0
  6
CONTINUOUS
 62
     7
 10
145.3786400166
 20
629.2672841938
 30
0.0
  0
VERTEX
  5
EF
  8
0
  6
CONTINUOUS
 62
     7
 10
143.0308056084
 20
628.1297630758
 30
0.0
  0
VERTEX
  5
F0
  8
0
  6
CONTINUOUS
 62
     7
 10
140.7445688752
 20
626.9145845563
 30
0.0
  0
VERTEX
  5
F1
  8
0
  6
CONTINUOUS
 62
     7
 10
138.52394568
 20
625.6238832266
 30
0.0
  0
VERTEX
  5
F2
  8
0
  6
CONTINUOUS
 62
     7
 10
136.3728326765
 20
624.2599240632
 30
0.0
  0
VERTEX
  5
F3
  8
0
  6
CONTINUOUS
 62
     7
 10
134.2950035838
 20
622.8250949771
 30
0.0
  0
VERTEX
  5
F4
  8
0
  6
CONTINUOUS
 62
     7
 10
132.2941017357
 20
621.32191799
 30
0.0
  0
VERTEX
  5
F5
  8
0
  6
CONTINUOUS
 62
     7
 10
130.373640081
 20
619.7530268819
 30
0.0
  0
VERTEX
  5
F6
  8
0
  6
CONTINUOUS
 62
     7
 10
128.5369825569
 20
618.1211783678
 30
0.0
  0
VERTEX
  5
F7
  8
0
  6
CONTINUOUS
 62
     7
 10
126.7873552647
 20
616.4292297454
 30
0.0
  0
VERTEX
  5
F8
  8
0
  6
CONTINUOUS
 62
     7
 10
125.1278278437
 20
614.6801519335
 30
0.0
  0
VERTEX
  5
F9
  8
0
  6
CONTINUOUS
 62
     7
 10
123.5613097456
 20
612.8770127089
 30
0.0
  0
VERTEX
  5
FA
  8
0
  6
CONTINUOUS
 62
     7
 10
122.0905539599
 20
611.0229767055
 30
0.0
  0
VERTEX
  5
FB
  8
0
  6
CONTINUOUS
 62
     7
 10
120.7181346622
 20
609.1212961019
 30
0.0
  0
VERTEX
  5
FC
  8
0
  6
CONTINUOUS
 62
     7
 10
119.4464583901
 20
607.1753068955
 30
0.0
  0
VERTEX
  5
FD
  8
0
  6
CONTINUOUS
 62
     7
 10
118.2777640429
 20
605.1884233148
 30
0.0
  0
VERTEX
  5
FE
  8
0
  6
CONTINUOUS
 62
     7
 10
117.2140968052
 20
603.1641303689
 30
0.0
  0
VERTEX
  5
FF
  8
0
  6
CONTINUOUS
 62
     7
 10
116.2573230472
 20
601.1059801222
 30
0.0
  0
VERTEX
  5
100
  8
0
  6
CONTINUOUS
 62
     7
 10
115.4091191498
 20
599.0175814496
 30
0.0
  0
VERTEX
  5
101
  8
0
  6
CONTINUOUS
 62
     7
 10
114.6709752289
 20
596.9026000367
 30
0.0
  0
VERTEX
  5
102
  8
0
  6
CONTINUOUS
 62
     7
 10
114.0441876856
 20
594.7647453414
 30
0.0
  0
VERTEX
  5
103
  8
0
  6
CONTINUOUS
 62
     7
 10
113.5298592058
 20
592.6077687309
 30
0.0
  0
VERTEX
  5
104
  8
0
  6
CONTINUOUS
 62
     7
 10
113.1288838592
 20
590.4354537034
 30
0.0
  0
VERTEX
  5
105
  8
0
  6
CONTINUOUS
 62
     7
 10
112.841969451
 20
588.2516116963
 30
0.0
  0
VERTEX
  5
106
  8
0
  6
CONTINUOUS
 62
     7
 10
112.6696226207
 20
586.0600730066
 30
0.0
  0
VERTEX
  5
107
  8
0
  6
CONTINUOUS
 62
     7
 10
112.6121339408
 20
583.8646828325
 30
0.0
  0
VERTEX
  5
108
  8
0
  6
CONTINUOUS
 62
     7
 10
112.6696226207
 20
581.6692926583
 30
0.0
  0
VERTEX
  5
109
  8
0
  6
CONTINUOUS
 62
     7
 10
112.841969451
 20
579.4777539687
 30
0.0
  0
VERTEX
  5
10A
  8
0
  6
CONTINUOUS
 62
     7
 10
113.1288838592
 20
577.2939119616
 30
0.0
  0
VERTEX
  5
10B
  8
0
  6
CONTINUOUS
 62
     7
 10
113.5298592058
 20
575.121596934
 30
0.0
  0
VERTEX
  5
10C
  8
0
  6
CONTINUOUS
 62
     7
 10
114.0441876856
 20
572.9646203236
 30
0.0
  0
VERTEX
  5
10D
  8
0
  6
CONTINUOUS
 62
     7
 10
114.6709752289
 20
570.8267656283
 30
0.0
  0
VERTEX
  5
10E
  8
0
  6
CONTINUOUS
 62
     7
 10
115.4091191498
 20
568.7117842154
 30
0.0
  0
VERTEX
  5
10F
  8
0
  6
CONTINUOUS
 62
     7
 10
116.2573230472
 20
566.6233855427
 30
0.0
  0
VERTEX
  5
110
  8
0
  6
CONTINUOUS
 62
     7
 10
117.2140968052
 20
564.565235296
 30
0.0
  0
VERTEX
  5
111
  8
0
  6
CONTINUOUS
 62
     7
 10
118.2777640429
 20
562.5409423501
 30
0.0
  0
VERTEX
  5
112
  8
0
  6
CONTINUOUS
 62
     7
 10
119.4464583901
 20
560.5540587695
 30
0.0
  0
VERTEX
  5
113
  8
0
  6
CONTINUOUS
 62
     7
 10
120.7181346622
 20
558.608069563
 30
0.0
  0
VERTEX
  5
114
  8
0
  6
CONTINUOUS
 62
     7
 10
122.0905539599
 20
556.7063889594
 30
0.0
  0
VERTEX
  5
115
  8
0
  6
CONTINUOUS
 62
     7
 10
123.5613097456
 20
554.8523529561
 30
0.0
  0
VERTEX
  5
116
  8
0
  6
CONTINUOUS
 62
     7
 10
125.1278278437
 20
553.0492137314
 30
0.0
  0
VERTEX
  5
117
  8
0
  6
CONTINUOUS
 62
     7
 10
126.7873552647
 20
551.3001359196
 30
0.0
  0
VERTEX
  5
118
  8
0
  6
CONTINUOUS
 62
     7
 10
128.5369825569
 20
549.6081872971
 30
0.0
  0
VERTEX
  5
119
  8
0
  6
CONTINUOUS
 62
     7
 10
130.373640081
 20
547.976338783
 30
0.0
  0
VERTEX
  5
11A
  8
0
  6
CONTINUOUS
 62
     7
 10
132.2941017357
 20
546.407447675
 30
0.0
  0
VERTEX
  5
11B
  8
0
  6
CONTINUOUS
 62
     7
 10
134.2950035838
 20
544.9042706878
 30
0.0
  0
VERTEX
  5
11C
  8
0
  6
CONTINUOUS
 62
     7
 10
136.3728326765
 20
543.4694416017
 30
0.0
  0
VERTEX
  5
11D
  8
0
  6
CONTINUOUS
 62
     7
 10
138.52394568
 20
542.1054824383
 30
0.0
  0
VERTEX
  5
11E
  8
0
  6
CONTINUOUS
 62
     7
 10
140.7445688752
 20
540.8147811086
 30
0.0
  0
VERTEX
  5
11F
  8
0
  6
CONTINUOUS
 62
     7
 10
143.0308056084
 20
539.5996025891
 30
0.0
  0
VERTEX
  5
120
  8
0
  6
CONTINUOUS
 62
     7
 10
145.3786400166
 20
538.4620814712
 30
0.0
  0
VERTEX
  5
121
  8
0
  6
CONTINUOUS
 62
     7
 10
147.7839631048
 20
537.4042145104
 30
0.0
  0
VERTEX
  5
122
  8
0
  6
CONTINUOUS
 62
     7
 10
150.242548531
 20
536.4278531761
 30
0.0
  0
VERTEX
  5
123
  8
0
  6
CONTINUOUS
 62
     7
 10
152.7500842718
 20
535.5347111018
 30
0.0
  0
VERTEX
  5
124
  8
0
  6
CONTINUOUS
 62
     7
 10
155.3021707592
 20
534.7263566346
 30
0.0
  0
VERTEX
  5
125
  8
0
  6
CONTINUOUS
 62
     7
 10
157.894332057
 20
534.004205385
 30
0.0
  0
VERTEX
  5
126
  8
0
  6
CONTINUOUS
 62
     7
 10
160.5220214483
 20
533.3695314021
 30
0.0
  0
VERTEX
  5
127
  8
0
  6
CONTINUOUS
 62
     7
 10
163.1806270239
 20
532.823437372
 30
0.0
  0
VERTEX
  5
128
  8
0
  6
CONTINUOUS
 62
     7
 10
165.8654847202
 20
532.36689187
 30
0.0
  0
VERTEX
  5
129
  8
0
  6
CONTINUOUS
 62
     7
 10
168.5718857703
 20
532.0006883831
 30
0.0
  0
VERTEX
  5
12A
  8
0
  6
CONTINUOUS
 62
     7
 10
171.2950813604
 20
531.7254751117
 30
0.0
  0
VERTEX
  5
12B
  8
0
  6
CONTINUOUS
 62
     7
 10
174.0302942713
 20
531.541728893
 30
0.0
  0
VERTEX
  5
12C
  8
0
  6
CONTINUOUS
 62
     7
 10
176.7727263291
 20
531.4497738273
 30
0.0
  0
VERTEX
  5
12D
  8
0
  6
CONTINUOUS
 62
     7
 10
179.5175658559
 20
531.4497738273
 30
0.0
  0
VERTEX
  5
12E
  8
0
  6
CONTINUOUS
 62
     7
 10
182.2599979137
 20
531.541728893
 30
0.0
  0
VERTEX
  5
12F
  8
0
  6
CONTINUOUS
 62
     7
 10
184.9952108246
 20
531.7254751117
 30
0.0
  0
VERTEX
  5
130
  8
0
  6
CONTINUOUS
 62
     7
 10
187.7184064147
 20
532.0006883831
 30
0.0
  0
VERTEX
  5
131
  8
0
  6
CONTINUOUS
 62
     7
 10
190.4248074648
 20
532.36689187
 30
0.0
  0
VERTEX
  5
132
  8
0
  6
CONTINUOUS
 62
     7
 10
193.1096651611
 20
532.823437372
 30
0.0
  0
VERTEX
  5
133
  8
0
  6
CONTINUOUS
 62
     7
 10
195.7682707367
 20
533.3695314021
 30
0.0
  0
VERTEX
  5
134
  8
0
  6
CONTINUOUS
 62
     7
 10
198.395960128
 20
534.004205385
 30
0.0
  0
VERTEX
  5
135
  8
0
  6
CONTINUOUS
 62
     7
 10
200.9881214258
 20
534.7263566346
 30
0.0
  0
VERTEX
  5
136
  8
0
  6
CONTINUOUS
 62
     7
 10
203.5402079132
 20
535.5347111018
 30
0.0
  0
VERTEX
  5
137
  8
0
  6
CONTINUOUS
 62
     7
 10
206.047743654
 20
536.4278531761
 30
0.0
  0
VERTEX
  5
138
  8
0
  6
CONTINUOUS
 62
     7
 10
208.5063290802
 20
537.4042145104
 30
0.0
  0
VERTEX
  5
139
  8
0
  6
CONTINUOUS
 62
     7
 10
210.9116521684
 20
538.4620814712
 30
0.0
  0
VERTEX
  5
13A
  8
0
  6
CONTINUOUS
 62
     7
 10
213.2594865766
 20
539.5996025891
 30
0.0
  0
VERTEX
  5
13B
  8
0
  6
CONTINUOUS
 62
     7
 10
215.5457233098
 20
540.8147811086
 30
0.0
  0
VERTEX
  5
13C
  8
0
  6
CONTINUOUS
 62
     7
 10
217.766346505
 20
542.1054824383
 30
0.0
  0
VERTEX
  5
13D
  8
0
  6
CONTINUOUS
 62
     7
 10
219.9174595085
 20
543.4694416017
 30
0.0
  0
VERTEX
  5
13E
  8
0
  6
CONTINUOUS
 62
     7
 10
221.9952886012
 20
544.9042706878
 30
0.0
  0
VERTEX
  5
13F
  8
0
  6
CONTINUOUS
 62
     7
 10
223.9961904493
 20
546.407447675
 30
0.0
  0
VERTEX
  5
140
  8
0
  6
CONTINUOUS
 62
     7
 10
225.916652104
 20
547.976338783
 30
0.0
  0
VERTEX
  5
141
  8
0
  6
CONTINUOUS
 62
     7
 10
227.7533096281
 20
549.6081872971
 30
0.0
  0
VERTEX
  5
142
  8
0
  6
CONTINUOUS
 62
     7
 10
229.5029369202
 20
551.3001359196
 30
0.0
  0
VERTEX
  5
143
  8
0
  6
CONTINUOUS
 62
     7
 10
231.1624643412
 20
553.0492137314
 30
0.0
  0
VERTEX
  5
144
  8
0
  6
CONTINUOUS
 62
     7
 10
232.7289824394
 20
554.8523529561
 30
0.0
  0
VERTEX
  5
145
  8
0
  6
CONTINUOUS
 62
     7
 10
234.1997382251
 20
556.7063889594
 30
0.0
  0
VERTEX
  5
146
  8
0
  6
CONTINUOUS
 62
     7
 10
235.5721575228
 20
558.608069563
 30
0.0
  0
VERTEX
  5
147
  8
0
  6
CONTINUOUS
 62
     7
 10
236.8438337949
 20
560.5540587695
 30
0.0
  0
VERTEX
  5
148
  8
0
  6
CONTINUOUS
 62
     7
 10
238.0125281421
 20
562.5409423501
 30
0.0
  0
VERTEX
  5
149
  8
0
  6
CONTINUOUS
 62
     7
 10
239.0761953798
 20
564.565235296
 30
0.0
  0
VERTEX
  5
14A
  8
0
  6
CONTINUOUS
 62
     7
 10
240.0329691378
 20
566.6233855427
 30
0.0
  0
VERTEX
  5
14B
  8
0
  6
CONTINUOUS
 62
     7
 10
240.8811730352
 20
568.7117842154
 30
0.0
  0
VERTEX
  5
14C
  8
0
  6
CONTINUOUS
 62
     7
 10
241.6193169561
 20
570.8267656283
 30
0.0
  0
VERTEX
  5
14D
  8
0
  6
CONTINUOUS
 62
     7
 10
242.2461044994
 20
572.9646203236
 30
0.0
  0
VERTEX
  5
14E
  8
0
  6
CONTINUOUS
 62
     7
 10
242.7604329792
 20
575.121596934
 30
0.0
  0
VERTEX
  5
14F
  8
0
  6
CONTINUOUS
 62
     7
 10
243.1614083258
 20
577.2939119616
 30
0.0
  0
VERTEX
  5
150
  8
0
  6
CONTINUOUS
 62
     7
 10
243.448322734
 20
579.4777539687
 30
0.0
  0
VERTEX
  5
151
  8
0
  6
CONTINUOUS
 62
     7
 10
243.6206695643
 20
581.6692926583
 30
0.0
  0
VERTEX
  5
152
  8
0
  6
CONTINUOUS
 62
     7
 10
243.6781582442
 20
583.8646828325
 30
0.0
  0
SEQEND
  5
26B
  8
0
  6
CONTINUOUS
 62
     7
  0
CIRCLE
  5
77
  8
0
  6
CONTINUOUS
 62
     7
 10
148.1451460925
 20
553.8646828325
 30
0.0
 40
1.0
  0
CIRCLE
  5
78
  8
0
  6
CONTINUOUS
 62
     7
 10
148.1451460925
 20
613.8646828325
 30
0.0
 40
1.0
  0
CIRCLE
  5
79
  8
0
  6
CONTINUOUS
 62
     7
 10
333.898000138
 20
576.1828731661
 30
0.0
 40
1.0
  0
CIRCLE
  5
7A
  8
0
  6
CONTINUOUS
 62
     7
 10
355.1112035736
 20
554.9696697305
 30
0.0
 40
1.0
  0
POLYLINE
  5
7B
  8
0
  6
CONTINUOUS
 62
     7
 66
     1
 10
0.0
 20
0.0
 30
0.0
 70
   128
  0
VERTEX
  5
153
  8
0
  6
CONTINUOUS
 62
     7
 10
246.4715919717
 20
584.9696697305
 30
0.0
  0
VERTEX
  5
154
  8
0
  6
CONTINUOUS
 62
     7
 10
246.5370378717
 20
582.8312706772
 30
0.0
  0
VERTEX
  5
155
  8
0
  6
CONTINUOUS
 62
     7
 10
246.7332563623
 20
580.696430673
 30
0.0
  0
VERTEX
  5
156
  8
0
  6
CONTINUOUS
 62
     7
 10
247.0599345192
 20
578.5687031794
 30
0.0
  0
VERTEX
  5
157
  8
0
  6
CONTINUOUS
 62
     7
 10
247.5165209993
 20
576.4516295503
 30
0.0
  0
VERTEX
  5
158
  8
0
  6
CONTINUOUS
 62
     7
 10
248.1022483929
 20
574.3487339105
 30
0.0
  0
VERTEX
  5
159
  8
0
  6
CONTINUOUS
 62
     7
 10
248.8161555751
 20
572.2635147731
 30
0.0
  0
VERTEX
  5
15A
  8
0
  6
CONTINUOUS
 62
     7
 10
249.6570504531
 20
570.1994441088
 30
0.0
  0
VERTEX
  5
15B
  8
0
  6
CONTINUOUS
 62
     7
 10
250.6235248669
 20
568.1599566351
 30
0.0
  0
VERTEX
  5
15C
  8
0
  6
CONTINUOUS
 62
     7
 10
251.7139843925
 20
566.1484488855
 30
0.0
  0
VERTEX
  5
15D
  8
0
  6
CONTINUOUS
 62
     7
 10
252.9266036376
 20
564.1682652395
 30
0.0
  0
VERTEX
  5
15E
  8
0
  6
CONTINUOUS
 62
     7
 10
254.2593634947
 20
562.2227044414
 30
0.0
  0
VERTEX
  5
15F
  8
0
  6
CONTINUOUS
 62
     7
 10
255.7100511416
 20
560.3150037687
 30
0.0
  0
VERTEX
  5
160
  8
0
  6
CONTINUOUS
 62
     7
 10
257.27625259
 20
558.4483371685
 30
0.0
  0
VERTEX
  5
161
  8
0
  6
CONTINUOUS
 62
     7
 10
258.9553526863
 20
556.6258133958
 30
0.0
  0
VERTEX
  5
162
  8
0
  6
CONTINUOUS
 62
     7
 10
260.7445649131
 20
554.8504666995
 30
0.0
  0
VERTEX
  5
163
  8
0
  6
CONTINUOUS
 62
     7
 10
262.6409127637
 20
553.1252475093
 30
0.0
  0
VERTEX
  5
164
  8
0
  6
CONTINUOUS
 62
     7
 10
264.6412334665
 20
551.4530317496
 30
0.0
  0
VERTEX
  5
165
  8
0
  6
CONTINUOUS
 62
     7
 10
266.7422003373
 20
549.836602212
 30
0.0
  0
VERTEX
  5
166
  8
0
  6
CONTINUOUS
 62
     7
 10
268.9403190538
 20
548.2786485563
 30
0.0
  0
VERTEX
  5
167
  8
0
  6
CONTINUOUS
 62
     7
 10
271.2319276556
 20
546.7817598592
 30
0.0
  0
VERTEX
  5
168
  8
0
  6
CONTINUOUS
 62
     7
 10
273.6132114454
 20
545.3484357904
 30
0.0
  0
VERTEX
  5
169
  8
0
  6
CONTINUOUS
 62
     7
 10
276.0802067145
 20
543.9810530852
 30
0.0
  0
VERTEX
  5
16A
  8
0
  6
CONTINUOUS
 62
     7
 10
278.6288119181
 20
542.6818953465
 30
0.0
  0
VERTEX
  5
16B
  8
0
  6
CONTINUOUS
 62
     7
 10
281.2547839507
 20
541.4531195174
 30
0.0
  0
VERTEX
  5
16C
  8
0
  6
CONTINUOUS
 62
     7
 10
283.9537493213
 20
540.2967745076
 30
0.0
  0
VERTEX
  5
16D
  8
0
  6
CONTINUOUS
 62
     7
 10
286.72121533
 20
539.2147788416
 30
0.0
  0
VERTEX
  5
16E
  8
0
  6
CONTINUOUS
 62
     7
 10
289.5525812431
 20
538.2089430104
 30
0.0
  0
VERTEX
  5
16F
  8
0
  6
CONTINUOUS
 62
     7
 10
292.443127118
 20
537.2809322189
 30
0.0
  0
VERTEX
  5
170
  8
0
  6
CONTINUOUS
 62
     7
 10
295.3880491927
 20
536.4322961877
 30
0.0
  0
VERTEX
  5
171
  8
0
  6
CONTINUOUS
 62
     7
 10
298.3824412598
 20
535.664446802
 30
0.0
  0
VERTEX
  5
172
  8
0
  6
CONTINUOUS
 62
     7
 10
301.4213207438
 20
534.978658111
 30
0.0
  0
VERTEX
  5
173
  8
0
  6
CONTINUOUS
 62
     7
 10
304.4996287002
 20
534.376077504
 30
0.0
  0
VERTEX
  5
174
  8
0
  6
CONTINUOUS
 62
     7
 10
307.6122447177
 20
533.857703359
 30
0.0
  0
VERTEX
  5
175
  8
0
  6
CONTINUOUS
 62
     7
 10
310.7539841234
 20
533.4243999432
 30
0.0
  0
VERTEX
  5
176
  8
0
  6
CONTINUOUS
 62
     7
 10
313.919620335
 20
533.0768862377
 30
0.0
  0
VERTEX
  5
177
  8
0
  6
CONTINUOUS
 62
     7
 10
317.1038839295
 20
532.8157471131
 30
0.0
  0
VERTEX
  5
178
  8
0
  6
CONTINUOUS
 62
     7
 10
320.3014742843
 20
532.6414109777
 30
0.0
  0
VERTEX
  5
179
  8
0
  6
CONTINUOUS
 62
     7
 10
323.5070705208
 20
532.5541721295
 30
0.0
  0
VERTEX
  5
17A
  8
0
  6
CONTINUOUS
 62
     7
 10
326.7153366263
 20
532.5541721295
 30
0.0
  0
VERTEX
  5
17B
  8
0
  6
CONTINUOUS
 62
     7
 10
329.9209328628
 20
532.6414109777
 30
0.0
  0
VERTEX
  5
17C
  8
0
  6
CONTINUOUS
 62
     7
 10
333.1185232177
 20
532.8157471131
 30
0.0
  0
VERTEX
  5
17D
  8
0
  6
CONTINUOUS
 62
     7
 10
336.3027868121
 20
533.0768862377
 30
0.0
  0
VERTEX
  5
17E
  8
0
  6
CONTINUOUS
 62
     7
 10
339.4684230237
 20
533.4243999432
 30
0.0
  0
VERTEX
  5
17F
  8
0
  6
CONTINUOUS
 62
     7
 10
342.6101624294
 20
533.857703359
 30
0.0
  0
VERTEX
  5
180
  8
0
  6
CONTINUOUS
 62
     7
 10
345.7227784469
 20
534.376077504
 30
0.0
  0
VERTEX
  5
181
  8
0
  6
CONTINUOUS
 62
     7
 10
348.8010864034
 20
534.978658111
 30
0.0
  0
VERTEX
  5
182
  8
0
  6
CONTINUOUS
 62
     7
 10
351.8399658873
 20
535.664446802
 30
0.0
  0
VERTEX
  5
183
  8
0
  6
CONTINUOUS
 62
     7
 10
354.8343579545
 20
536.4322961877
 30
0.0
  0
VERTEX
  5
184
  8
0
  6
CONTINUOUS
 62
     7
 10
357.7792800292
 20
537.2809322189
 30
0.0
  0
VERTEX
  5
185
  8
0
  6
CONTINUOUS
 62
     7
 10
360.669825904
 20
538.2089430104
 30
0.0
  0
VERTEX
  5
186
  8
0
  6
CONTINUOUS
 62
     7
 10
363.5011918172
 20
539.2147788416
 30
0.0
  0
VERTEX
  5
187
  8
0
  6
CONTINUOUS
 62
     7
 10
366.2686578258
 20
540.2967745076
 30
0.0
  0
VERTEX
  5
188
  8
0
  6
CONTINUOUS
 62
     7
 10
368.9676231965
 20
541.4531195174
 30
0.0
  0
VERTEX
  5
189
  8
0
  6
CONTINUOUS
 62
     7
 10
371.593595229
 20
542.6818953465
 30
0.0
  0
VERTEX
  5
18A
  8
0
  6
CONTINUOUS
 62
     7
 10
374.1422004326
 20
543.9810530852
 30
0.0
  0
VERTEX
  5
18B
  8
0
  6
CONTINUOUS
 62
     7
 10
376.6091957017
 20
545.3484357904
 30
0.0
  0
VERTEX
  5
18C
  8
0
  6
CONTINUOUS
 62
     7
 10
378.9904794916
 20
546.7817598592
 30
0.0
  0
VERTEX
  5
18D
  8
0
  6
CONTINUOUS
 62
     7
 10
381.2820880934
 20
548.2786485563
 30
0.0
  0
VERTEX
  5
18E
  8
0
  6
CONTINUOUS
 62
     7
 10
383.4802068099
 20
549.836602212
 30
0.0
  0
VERTEX
  5
18F
  8
0
  6
CONTINUOUS
 62
     7
 10
385.5811736807
 20
551.4530317496
 30
0.0
  0
VERTEX
  5
190
  8
0
  6
CONTINUOUS
 62
     7
 10
387.5814943834
 20
553.1252475093
 30
0.0
  0
VERTEX
  5
191
  8
0
  6
CONTINUOUS
 62
     7
 10
389.477842234
 20
554.8504666995
 30
0.0
  0
VERTEX
  5
192
  8
0
  6
CONTINUOUS
 62
     7
 10
391.2670544609
 20
556.6258133958
 30
0.0
  0
VERTEX
  5
193
  8
0
  6
CONTINUOUS
 62
     7
 10
392.9461545571
 20
558.4483371685
 30
0.0
  0
VERTEX
  5
194
  8
0
  6
CONTINUOUS
 62
     7
 10
394.5123560055
 20
560.3150037687
 30
0.0
  0
VERTEX
  5
195
  8
0
  6
CONTINUOUS
 62
     7
 10
395.9630436524
 20
562.2227044414
 30
0.0
  0
VERTEX
  5
196
  8
0
  6
CONTINUOUS
 62
     7
 10
397.2958035096
 20
564.1682652395
 30
0.0
  0
VERTEX
  5
197
  8
0
  6
CONTINUOUS
 62
     7
 10
398.5084227546
 20
566.1484488855
 30
0.0
  0
VERTEX
  5
198
  8
0
  6
CONTINUOUS
 62
     7
 10
399.5988822802
 20
568.1599566351
 30
0.0
  0
VERTEX
  5
199
  8
0
  6
CONTINUOUS
 62
     7
 10
400.5653566941
 20
570.1994441088
 30
0.0
  0
VERTEX
  5
19A
  8
0
  6
CONTINUOUS
 62
     7
 10
401.406251572
 20
572.2635147731
 30
0.0
  0
VERTEX
  5
19B
  8
0
  6
CONTINUOUS
 62
     7
 10
402.1201587542
 20
574.3487339105
 30
0.0
  0
VERTEX
  5
19C
  8
0
  6
CONTINUOUS
 62
     7
 10
402.7058861478
 20
576.4516295503
 30
0.0
  0
VERTEX
  5
19D
  8
0
  6
CONTINUOUS
 62
     7
 10
403.162472628
 20
578.5687031794
 30
0.0
  0
VERTEX
  5
19E
  8
0
  6
CONTINUOUS
 62
     7
 10
403.4891507848
 20
580.696430673
 30
0.0
  0
VERTEX
  5
19F
  8
0
  6
CONTINUOUS
 62
     7
 10
403.6853692754
 20
582.8312706772
 30
0.0
  0
VERTEX
  5
1A0
  8
0
  6
CONTINUOUS
 62
     7
 10
403.7508151754
 20
584.9696697305
 30
0.0
  0
VERTEX
  5
1A1
  8
0
  6
CONTINUOUS
 62
     7
 10
403.6853692754
 20
587.1080687839
 30
0.0
  0
VERTEX
  5
1A2
  8
0
  6
CONTINUOUS
 62
     7
 10
403.4891507848
 20
589.242908788
 30
0.0
  0
VERTEX
  5
1A3
  8
0
  6
CONTINUOUS
 62
     7
 10
403.162472628
 20
591.3706362817
 30
0.0
  0
VERTEX
  5
1A4
  8
0
  6
CONTINUOUS
 62
     7
 10
402.7058861478
 20
593.4877099107
 30
0.0
  0
VERTEX
  5
1A5
  8
0
  6
CONTINUOUS
 62
     7
 10
402.1201587542
 20
595.5906055506
 30
0.0
  0
VERTEX
  5
1A6
  8
0
  6
CONTINUOUS
 62
     7
 10
401.406251572
 20
597.6758246879
 30
0.0
  0
VERTEX
  5
1A7
  8
0
  6
CONTINUOUS
 62
     7
 10
400.5653566941
 20
599.7398953523
 30
0.0
  0
VERTEX
  5
1A8
  8
0
  6
CONTINUOUS
 62
     7
 10
399.5988822802
 20
601.7793828259
 30
0.0
  0
VERTEX
  5
1A9
  8
0
  6
CONTINUOUS
 62
     7
 10
398.5084227546
 20
603.7908905755
 30
0.0
  0
VERTEX
  5
1AA
  8
0
  6
CONTINUOUS
 62
     7
 10
397.2958035096
 20
605.7710742216
 30
0.0
  0
VERTEX
  5
1AB
  8
0
  6
CONTINUOUS
 62
     7
 10
395.9630436524
 20
607.7166350196
 30
0.0
  0
VERTEX
  5
1AC
  8
0
  6
CONTINUOUS
 62
     7
 10
394.5123560055
 20
609.6243356924
 30
0.0
  0
VERTEX
  5
1AD
  8
0
  6
CONTINUOUS
 62
     7
 10
392.9461545571
 20
611.4910022925
 30
0.0
  0
VERTEX
  5
1AE
  8
0
  6
CONTINUOUS
 62
     7
 10
391.2670544609
 20
613.3135260652
 30
0.0
  0
VERTEX
  5
1AF
  8
0
  6
CONTINUOUS
 62
     7
 10
389.477842234
 20
615.0888727616
 30
0.0
  0
VERTEX
  5
1B0
  8
0
  6
CONTINUOUS
 62
     7
 10
387.5814943834
 20
616.8140919517
 30
0.0
  0
VERTEX
  5
1B1
  8
0
  6
CONTINUOUS
 62
     7
 10
385.5811736807
 20
618.4863077115
 30
0.0
  0
VERTEX
  5
1B2
  8
0
  6
CONTINUOUS
 62
     7
 10
383.4802068099
 20
620.102737249
 30
0.0
  0
VERTEX
  5
1B3
  8
0
  6
CONTINUOUS
 62
     7
 10
381.2820880934
 20
621.6606909047
 30
0.0
  0
VERTEX
  5
1B4
  8
0
  6
CONTINUOUS
 62
     7
 10
378.9904794916
 20
623.1575796019
 30
0.0
  0
VERTEX
  5
1B5
  8
0
  6
CONTINUOUS
 62
     7
 10
376.6091957017
 20
624.5909036706
 30
0.0
  0
VERTEX
  5
1B6
  8
0
  6
CONTINUOUS
 62
     7
 10
374.1422004326
 20
625.9582863759
 30
0.0
  0
VERTEX
  5
1B7
  8
0
  6
CONTINUOUS
 62
     7
 10
371.593595229
 20
627.2574441145
 30
0.0
  0
VERTEX
  5
1B8
  8
0
  6
CONTINUOUS
 62
     7
 10
368.9676231965
 20
628.4862199436
 30
0.0
  0
VERTEX
  5
1B9
  8
0
  6
CONTINUOUS
 62
     7
 10
366.2686578258
 20
629.6425649534
 30
0.0
  0
VERTEX
  5
1BA
  8
0
  6
CONTINUOUS
 62
     7
 10
363.5011918172
 20
630.7245606194
 30
0.0
  0
VERTEX
  5
1BB
  8
0
  6
CONTINUOUS
 62
     7
 10
360.669825904
 20
631.7303964506
 30
0.0
  0
VERTEX
  5
1BC
  8
0
  6
CONTINUOUS
 62
     7
 10
357.7792800292
 20
632.6584072422
 30
0.0
  0
VERTEX
  5
1BD
  8
0
  6
CONTINUOUS
 62
     7
 10
354.8343579545
 20
633.5070432733
 30
0.0
  0
VERTEX
  5
1BE
  8
0
  6
CONTINUOUS
 62
     7
 10
351.8399658873
 20
634.274892659
 30
0.0
  0
VERTEX
  5
1BF
  8
0
  6
CONTINUOUS
 62
     7
 10
348.8010864034
 20
634.9606813501
 30
0.0
  0
VERTEX
  5
1C0
  8
0
  6
CONTINUOUS
 62
     7
 10
345.7227784469
 20
635.563261957
 30
0.0
  0
VERTEX
  5
1C1
  8
0
  6
CONTINUOUS
 62
     7
 10
342.6101624294
 20
636.0816361021
 30
0.0
  0
VERTEX
  5
1C2
  8
0
  6
CONTINUOUS
 62
     7
 10
339.4684230237
 20
636.5149395178
 30
0.0
  0
VERTEX
  5
1C3
  8
0
  6
CONTINUOUS
 62
     7
 10
336.3027868121
 20
636.8624532233
 30
0.0
  0
VERTEX
  5
1C4
  8
0
  6
CONTINUOUS
 62
     7
 10
333.1185232177
 20
637.123592348
 30
0.0
  0
VERTEX
  5
1C5
  8
0
  6
CONTINUOUS
 62
     7
 10
329.9209328628
 20
637.2979284833
 30
0.0
  0
VERTEX
  5
1C6
  8
0
  6
CONTINUOUS
 62
     7
 10
326.7153366263
 20
637.3851673316
 30
0.0
  0
VERTEX
  5
1C7
  8
0
  6
CONTINUOUS
 62
     7
 10
323.5070705208
 20
637.3851673316
 30
0.0
  0
VERTEX
  5
1C8
  8
0
  6
CONTINUOUS
 62
     7
 10
320.3014742843
 20
637.2979284833
 30
0.0
  0
VERTEX
  5
1C9
  8
0
  6
CONTINUOUS
 62
     7
 10
317.1038839295
 20
637.123592348
 30
0.0
  0
VERTEX
  5
1CA
  8
0
  6
CONTINUOUS
 62
     7
 10
313.919620335
 20
636.8624532233
 30
0.0
  0
VERTEX
  5
1CB
  8
0
  6
CONTINUOUS
 62
     7
 10
310.7539841234
 20
636.5149395178
 30
0.0
  0
VERTEX
  5
1CC
  8
0
  6
CONTINUOUS
 62
     7
 10
307.6122447177
 20
636.0816361021
 30
0.0
  0
VERTEX
  5
1CD
  8
0
  6
CONTINUOUS
 62
     7
 10
304.4996287002
 20
635.563261957
 30
0.0
  0
VERTEX
  5
1CE
  8
0
  6
CONTINUOUS
 62
     7
 10
301.4213207438
 20
634.9606813501
 30
0.0
  0
VERTEX
  5
1CF
  8
0
  6
CONTINUOUS
 62
     7
 10
298.3824412598
 20
634.274892659
 30
0.0
  0
VERTEX
  5
1D0
  8
0
  6
CONTINUOUS
 62
     7
 10
295.3880491927
 20
633.5070432733
 30
0.0
  0
VERTEX
  5
1D1
  8
0
  6
CONTINUOUS
 62
     7
 10
292.443127118
 20
632.6584072422
 30
0.0
  0
VERTEX
  5
1D2
  8
0
  6
CONTINUOUS
 62
     7
 10
289.5525812431
 20
631.7303964506
 30
0.0
  0
VERTEX
  5
1D3
  8
0
  6
CONTINUOUS
 62
     7
 10
286.72121533
 20
630.7245606194
 30
0.0
  0
VERTEX
  5
1D4
  8
0
  6
CONTINUOUS
 62
     7
 10
283.9537493213
 20
629.6425649534
 30
0.0
  0
VERTEX
  5
1D5
  8
0
  6
CONTINUOUS
 62
     7
 10
281.2547839507
 20
628.4862199436
 30
0.0
  0
VERTEX
  5
1D6
  8
0
  6
CONTINUOUS
 62
     7
 10
278.6288119181
 20
627.2574441145
 30
0.0
  0
VERTEX
  5
1D7
  8
0
  6
CONTINUOUS
 62
     7
 10
276.0802067145
 20
625.9582863759
 30
0.0
  0
VERTEX
  5
1D8
  8
0
  6
CONTINUOUS
 62
     7
 10
273.6132114454
 20
624.5909036706
 30
0.0
  0
VERTEX
  5
1D9
  8
0
  6
CONTINUOUS
 62
     7
 10
271.2319276556
 20
623.1575796019
 30
0.0
  0
VERTEX
  5
1DA
  8
0
  6
CONTINUOUS
 62
     7
 10
268.9403190538
 20
621.6606909047
 30
0.0
  0
VERTEX
  5
1DB
  8
0
  6
CONTINUOUS
 62
     7
 10
266.7422003373
 20
620.102737249
 30
0.0
  0
VERTEX
  5
1DC
  8
0
  6
CONTINUOUS
 62
     7
 10
264.6412334665
 20
618.4863077115
 30
0.0
  0
VERTEX
  5
1DD
  8
0
  6
CONTINUOUS
 62
     7
 10
262.6409127637
 20
616.8140919517
 30
0.0
  0
VERTEX
  5
1DE
  8
0
  6
CONTINUOUS
 62
     7
 10
260.7445649131
 20
615.0888727616
 30
0.0
  0
VERTEX
  5
1DF
  8
0
  6
CONTINUOUS
 62
     7
 10
258.9553526863
 20
613.3135260652
 30
0.0
  0
VERTEX
  5
1E0
  8
0
  6
CONTINUOUS
 62
     7
 10
257.27625259
 20
611.4910022925
 30
0.0
  0
VERTEX
  5
1E1
  8
0
  6
CONTINUOUS
 62
     7
 10
255.7100511416
 20
609.6243356924
 30
0.0
  0
VERTEX
  5
1E2
  8
0
  6
CONTINUOUS
 62
     7
 10
254.2593634947
 20
607.7166350196
 30
0.0
  0
VERTEX
  5
1E3
  8
0
  6
CONTINUOUS
 62
     7
 10
252.9266036376
 20
605.7710742216
 30
0.0
  0
VERTEX
  5
1E4
  8
0
  6
CONTINUOUS
 62
     7
 10
251.7139843925
 20
603.7908905755
 30
0.0
  0
VERTEX
  5
1E5
  8
0
  6
CONTINUOUS
 62
     7
 10
250.6235248669
 20
601.7793828259
 30
0.0
  0
VERTEX
  5
1E6
  8
0
  6
CONTINUOUS
 62
     7
 10
249.6570504531
 20
599.7398953523
 30
0.0
  0
VERTEX
  5
1E7
  8
0
  6
CONTINUOUS
 62
     7
 10
248.8161555751
 20
597.6758246879
 30
0.0
  0
VERTEX
  5
1E8
  8
0
  6
CONTINUOUS
 62
     7
 10
248.1022483929
 20
595.5906055506
 30
0.0
  0
VERTEX
  5
1E9
  8
0
  6
CONTINUOUS
 62
     7
 10
247.5165209993
 20
593.4877099107
 30
0.0
  0
VERTEX
  5
1EA
  8
0
  6
CONTINUOUS
 62
     7
 10
247.0599345192
 20
591.3706362817
 30
0.0
  0
VERTEX
  5
1EB
  8
0
  6
CONTINUOUS
 62
     7
 10
246.7332563623
 20
589.242908788
 30
0.0
  0
VERTEX
  5
1EC
  8
0
  6
CONTINUOUS
 62
     7
 10
246.5370378717
 20
587.1080687839
 30
0.0
  0
VERTEX
  5
1ED
  8
0
  6
CONTINUOUS
 62
     7
 10
246.4715919717
 20
584.9696697305
 30
0.0
  0
SEQEND
  5
26C
  8
0
  6
CONTINUOUS
 62
     7
  0
CIRCLE
  5
7C
  8
0
  6
CONTINUOUS
 62
     7
 10
295.1112035736
 20
554.9696697305
 30
0.0
 40
1.0
  0
CIRCLE
  5
7D
  8
0
  6
CONTINUOUS
 62
     7
 10
295.1112035736
 20
614.9696697305
 30
0.0
 40
1.0
  0
CIRCLE
  5
7E
  8
0
  6
CONTINUOUS
 62
     7
 10
164.0471027356
 20
676.5568647294
 30
0.0
 40
1.0
  0
LINE
  5
7F
  8
0
  6
CONTINUOUS
 62
     7
 10
211.5103046811
 20
640.3436595057
 30
0.0
 11
211.5103046811
 21
730.343663082
 31
0.0
  0
LINE
  5
80
  8
0
  6
CONTINUOUS
 62
     7
 10
99.0103076613
 20
640.3436595057
 30
0.0
 11
211.5103046811
 21
640.3436595057
 31
0.0
  0
LINE
  5
81
  8
0
  6
CONTINUOUS
 62
     7
 10
99.0103076613
 20
730.343663082
 30
0.0
 11
99.0103076613
 21
640.3436595057
 31
0.0
  0
LINE
  5
82
  8
0
  6
CONTINUOUS
 62
     7
 10
211.5103046811
 20
730.343663082
 30
0.0
 11
99.0103076613
 21
730.343663082
 31
0.0
  0
CIRCLE
  5
83
  8
0
  6
CONTINUOUS
 62
     7
 10
125.2603061712
 20
715.3436612938
 30
0.0
 40
1.0
  0
CIRCLE
  5
84
  8
0
  6
CONTINUOUS
 62
     7
 10
125.2603061712
 20
655.3436612938
 30
0.0
 40
1.0
  0
CIRCLE
  5
85
  8
0
  6
CONTINUOUS
 62
     7
 10
185.2603061712
 20
655.3436612938
 30
0.0
 40
1.0
  0
CIRCLE
  5
86
  8
0
  6
CONTINUOUS
 62
     7
 10
291.8203237132
 20
676.2600929952
 30
0.0
 40
1.0
  0
LINE
  5
87
  8
0
  6
CONTINUOUS
 62
     7
 10
350.533529831
 20
640.0468877715
 30
0.0
 11
350.533529831
 21
730.0468913478
 31
0.0
  0
LINE
  5
88
  8
0
  6
CONTINUOUS
 62
     7
 10
215.5335244666
 20
640.0468877715
 30
0.0
 11
350.533529831
 21
640.0468877715
 31
0.0
  0
LINE
  5
89
  8
0
  6
CONTINUOUS
 62
     7
 10
215.5335244666
 20
730.0468913478
 30
0.0
 11
215.5335244666
 21
640.0468877715
 31
0.0
  0
LINE
  5
8A
  8
0
  6
CONTINUOUS
 62
     7
 10
350.533529831
 20
730.0468913478
 30
0.0
 11
215.5335244666
 21
730.0468913478
 31
0.0
  0
CIRCLE
  5
8B
  8
0
  6
CONTINUOUS
 62
     7
 10
253.0335271488
 20
715.0468895596
 30
0.0
 40
1.0
  0
CIRCLE
  5
8C
  8
0
  6
CONTINUOUS
 62
     7
 10
253.0335271488
 20
655.0468895596
 30
0.0
 40
1.0
  0
CIRCLE
  5
8D
  8
0
  6
CONTINUOUS
 62
     7
 10
313.0335271488
 20
655.0468895596
 30
0.0
 40
1.0
  0
CIRCLE
  5
8E
  8
0
  6
CONTINUOUS
 62
     7
 10
58.8637218491
 20
676.4013168178
 30
0.0
 40
1.0
  0
LINE
  5
8F
  8
0
  6
CONTINUOUS
 62
     7
 10
5.0769234965
 20
730.1881151703
 30
0.0
 11
5.0769234965
 21
640.188111594
 31
0.0
  0
LINE
  5
90
  8
0
  6
CONTINUOUS
 62
     7
 10
95.0769270728
 20
730.1881151703
 30
0.0
 11
5.0769234965
 21
730.1881151703
 31
0.0
  0
LINE
  5
91
  8
0
  6
CONTINUOUS
 62
     7
 10
95.0769270728
 20
640.188111594
 30
0.0
 11
95.0769270728
 21
730.1881151703
 31
0.0
  0
LINE
  5
92
  8
0
  6
CONTINUOUS
 62
     7
 10
5.0769234965
 20
640.188111594
 30
0.0
 11
95.0769270728
 21
640.188111594
 31
0.0
  0
CIRCLE
  5
93
  8
0
  6
CONTINUOUS
 62
     7
 10
20.0769252847
 20
715.1881133822
 30
0.0
 40
1.0
  0
CIRCLE
  5
94
  8
0
  6
CONTINUOUS
 62
     7
 10
20.0769252847
 20
655.1881133822
 30
0.0
 40
1.0
  0
CIRCLE
  5
95
  8
0
  6
CONTINUOUS
 62
     7
 10
80.0769252847
 20
655.1881133822
 30
0.0
 40
1.0
  0
LINE
  5
96
  8
0
  6
CONTINUOUS
 62
     7
 10
130.2540460421
 20
527.3627760131
 30
0.0
 11
4.2540440156
 21
527.3627760131
 31
0.0
  0
LINE
  5
97
  8
0
  6
CONTINUOUS
 62
     7
 10
4.2540440156
 20
401.3627739866
 30
0.0
 11
130.2540460421
 21
527.3627760131
 31
0.0
  0
LINE
  5
98
  8
0
  6
CONTINUOUS
 62
     7
 10
4.2540440156
 20
527.3627760131
 30
0.0
 11
4.2540440156
 21
401.3627739866
 31
0.0
  0
CIRCLE
  5
99
  8
0
  6
CONTINUOUS
 62
     7
 10
19.2540458037
 20
452.362774225
 30
0.0
 40
1.0
  0
CIRCLE
  5
9A
  8
0
  6
CONTINUOUS
 62
     7
 10
40.4672492393
 20
473.5759776606
 30
0.0
 40
1.0
  0
CIRCLE
  5
9B
  8
0
  6
CONTINUOUS
 62
     7
 10
79.2540458037
 20
512.362774225
 30
0.0
 40
1.0
  0
CIRCLE
  5
9C
  8
0
  6
CONTINUOUS
 62
     7
 10
19.2540458037
 20
512.362774225
 30
0.0
 40
1.0
  0
CIRCLE
  5
9D
  8
0
  6
CONTINUOUS
 62
     7
 10
80.2387036988
 20
411.3963065246
 30
0.0
 40
1.0
  0
CIRCLE
  5
9E
  8
0
  6
CONTINUOUS
 62
     7
 10
140.2387036988
 20
411.3963065246
 30
0.0
 40
1.0
  0
CIRCLE
  5
9F
  8
0
  6
CONTINUOUS
 62
     7
 10
119.0255002632
 20
450.183103089
 30
0.0
 40
1.0
  0
CIRCLE
  5
A0
  8
0
  6
CONTINUOUS
 62
     7
 10
140.2387036988
 20
471.3963065246
 30
0.0
 40
1.0
  0
LINE
  5
A1
  8
0
  6
CONTINUOUS
 62
     7
 10
155.2387054869
 20
522.396306763
 30
0.0
 11
4.0387015649
 21
396.3963047365
 31
0.0
  0
LINE
  5
A2
  8
0
  6
CONTINUOUS
 62
     7
 10
155.2387054869
 20
396.3963047365
 30
0.0
 11
155.2387054869
 21
522.396306763
 31
0.0
  0
LINE
  5
A3
  8
0
  6
CONTINUOUS
 62
     7
 10
4.0387015649
 20
396.3963047365
 30
0.0
 11
155.2387054869
 21
396.3963047365
 31
0.0
  0
CIRCLE
  5
A4
  8
0
  6
CONTINUOUS
 62
     7
 10
175.5118729779
 20
469.2510660577
 30
0.0
 40
1.0
  0
CIRCLE
  5
A5
  8
0
  6
CONTINUOUS
 62
     7
 10
196.7250764135
 20
448.0378626221
 30
0.0
 40
1.0
  0
CIRCLE
  5
A6
  8
0
  6
CONTINUOUS
 62
     7
 10
235.5118729779
 20
409.2510660577
 30
0.0
 40
0.9999999999999716
  0
LINE
  5
A7
  8
0
  6
CONTINUOUS
 62
     7
 10
160.5118729779
 20
394.2510660577
 30
0.0
 11
160.5118729779
 21
520.2510660577
 31
0.0
  0
LINE
  5
A8
  8
0
  6
CONTINUOUS
 62
     7
 10
160.5118729779
 20
520.2510660577
 30
0.0
 11
336.9118729779
 21
394.2510660577
 31
0.0
  0
LINE
  5
A9
  8
0
  6
CONTINUOUS
 62
     7
 10
336.9118729779
 20
394.2510660577
 30
0.0
 11
160.5118729779
 21
394.2510660577
 31
0.0
  0
CIRCLE
  5
AA
  8
0
  6
CONTINUOUS
 62
     7
 10
175.5118729779
 20
409.2510660577
 30
0.0
 40
1.0
  0
LINE
  5
AB
  8
0
  6
CONTINUOUS
 62
     7
 10
354.7027379489
 20
641.8869519998
 30
0.0
 11
407.1291431999
 21
611.6185510923
 31
0.0
  0
LINE
  5
AC
  8
0
  6
CONTINUOUS
 62
     7
 10
354.7027379489
 20
702.4237538149
 30
0.0
 11
354.7027379489
 21
641.8869519998
 31
0.0
  0
LINE
  5
AD
  8
0
  6
CONTINUOUS
 62
     7
 10
407.1291431999
 20
732.6921547224
 30
0.0
 11
354.7027379489
 21
702.4237538149
 31
0.0
  0
LINE
  5
AE
  8
0
  6
CONTINUOUS
 62
     7
 10
459.5555484509
 20
702.4237538149
 30
0.0
 11
407.1291431999
 21
732.6921547224
 31
0.0
  0
LINE
  5
AF
  8
0
  6
CONTINUOUS
 62
     7
 10
459.5555484509
 20
641.8869519998
 30
0.0
 11
459.5555484509
 21
702.4237538149
 31
0.0
  0
LINE
  5
B0
  8
0
  6
CONTINUOUS
 62
     7
 10
407.1291431999
 20
611.6185510923
 30
0.0
 11
459.5555484509
 21
641.8869519998
 31
0.0
  0
CIRCLE
  5
B1
  8
0
  6
CONTINUOUS
 62
     7
 10
377.1291431999
 20
702.1553529074
 30
0.0
 40
1.0
  0
CIRCLE
  5
B2
  8
0
  6
CONTINUOUS
 62
     7
 10
415.9159397643
 20
663.368556343
 30
0.0
 40
1.0
  0
CIRCLE
  5
B3
  8
0
  6
CONTINUOUS
 62
     7
 10
437.1291431999
 20
642.1553529074
 30
0.0
 40
1.0
  0
CIRCLE
  5
B4
  8
0
  6
CONTINUOUS
 62
     7
 10
377.1291431999
 20
642.1553529074
 30
0.0
 40
1.0
  0
CIRCLE
  5
B5
  8
0
  6
CONTINUOUS
 62
     7
 10
334.5676958487
 20
481.6098344326
 30
0.0
 40
1.0
  0
CIRCLE
  5
B6
  8
0
  6
CONTINUOUS
 62
     7
 10
355.7808992843
 20
460.396630997
 30
0.0
 40
1.0
  0
POLYLINE
  5
B7
  8
0
  6
CONTINUOUS
 62
     7
 66
     1
 10
0.0
 20
0.0
 30
0.0
 70
   128
  0
VERTEX
  5
1EE
  8
0
  6
CONTINUOUS
 62
     7
 10
325.7808992843
 20
517.7756486997
 30
0.0
  0
VERTEX
  5
1EF
  8
0
  6
CONTINUOUS
 62
     7
 10
322.9935211276
 20
517.9838972364
 30
0.0
  0
VERTEX
  5
1F0
  8
0
  6
CONTINUOUS
 62
     7
 10
320.2069867313
 20
518.5742244307
 30
0.0
  0
VERTEX
  5
1F1
  8
0
  6
CONTINUOUS
 62
     7
 10
317.422139856
 20
519.4950026587
 30
0.0
  0
VERTEX
  5
1F2
  8
0
  6
CONTINUOUS
 62
     7
 10
314.639824262
 20
520.6946042967
 30
0.0
  0
VERTEX
  5
1F3
  8
0
  6
CONTINUOUS
 62
     7
 10
311.8608837099
 20
522.121401721
 30
0.0
  0
VERTEX
  5
1F4
  8
0
  6
CONTINUOUS
 62
     7
 10
308.2283061577
 20
524.2472641128
 30
0.0
  0
VERTEX
  5
1F5
  8
0
  6
CONTINUOUS
 62
     7
 10
304.6048580122
 20
526.5582629523
 30
0.0
  0
VERTEX
  5
1F6
  8
0
  6
CONTINUOUS
 62
     7
 10
300.9924340557
 20
528.9384611659
 30
0.0
  0
VERTEX
  5
1F7
  8
0
  6
CONTINUOUS
 62
     7
 10
297.5562358858
 20
531.1685078983
 30
0.0
  0
VERTEX
  5
1F8
  8
0
  6
CONTINUOUS
 62
     7
 10
294.1334568973
 20
533.2551340449
 30
0.0
  0
VERTEX
  5
1F9
  8
0
  6
CONTINUOUS
 62
     7
 10
290.7257450598
 20
535.0975044031
 30
0.0
  0
VERTEX
  5
1FA
  8
0
  6
CONTINUOUS
 62
     7
 10
287.3347483431
 20
536.5947837702
 30
0.0
  0
VERTEX
  5
1FB
  8
0
  6
CONTINUOUS
 62
     7
 10
284.6831934712
 20
537.4634394673
 30
0.0
  0
VERTEX
  5
1FC
  8
0
  6
CONTINUOUS
 62
     7
 10
282.0437743583
 20
538.0078930409
 30
0.0
  0
VERTEX
  5
1FD
  8
0
  6
CONTINUOUS
 62
     7
 10
279.4175568373
 20
538.1808497233
 30
0.0
  0
VERTEX
  5
1FE
  8
0
  6
CONTINUOUS
 62
     7
 10
276.8112010188
 20
537.9689447852
 30
0.0
  0
VERTEX
  5
1FF
  8
0
  6
CONTINUOUS
 62
     7
 10
274.1902405441
 20
537.3772645132
 30
0.0
  0
VERTEX
  5
200
  8
0
  6
CONTINUOUS
 62
     7
 10
271.6151418343
 20
536.4273969547
 30
0.0
  0
VERTEX
  5
201
  8
0
  6
CONTINUOUS
 62
     7
 10
269.0987642189
 20
535.1405905082
 30
0.0
  0
VERTEX
  5
202
  8
0
  6
CONTINUOUS
 62
     7
 10
266.6539670268
 20
533.5380935719
 30
0.0
  0
VERTEX
  5
203
  8
0
  6
CONTINUOUS
 62
     7
 10
264.2936095874
 20
531.6411545442
 30
0.0
  0
VERTEX
  5
204
  8
0
  6
CONTINUOUS
 62
     7
 10
261.3518061509
 20
528.7472626036
 30
0.0
  0
VERTEX
  5
205
  8
0
  6
CONTINUOUS
 62
     7
 10
258.6057337268
 20
525.4326000062
 30
0.0
  0
VERTEX
  5
206
  8
0
  6
CONTINUOUS
 62
     7
 10
256.0842697433
 20
521.744883012
 30
0.0
  0
VERTEX
  5
207
  8
0
  6
CONTINUOUS
 62
     7
 10
253.8717532696
 20
517.8397813339
 30
0.0
  0
VERTEX
  5
208
  8
0
  6
CONTINUOUS
 62
     7
 10
251.9264107612
 20
513.6701165612
 30
0.0
  0
VERTEX
  5
209
  8
0
  6
CONTINUOUS
 62
     7
 10
250.2749273974
 20
509.2799825429
 30
0.0
  0
VERTEX
  5
20A
  8
0
  6
CONTINUOUS
 62
     7
 10
248.9439883578
 20
504.7134731283
 30
0.0
  0
VERTEX
  5
20B
  8
0
  6
CONTINUOUS
 62
     7
 10
247.9602788217
 20
500.0146821664
 30
0.0
  0
VERTEX
  5
20C
  8
0
  6
CONTINUOUS
 62
     7
 10
247.3504839685
 20
495.2277035062
 30
0.0
  0
VERTEX
  5
20D
  8
0
  6
CONTINUOUS
 62
     7
 10
247.1412889775
 20
490.396630997
 30
0.0
  0
VERTEX
  5
20E
  8
0
  6
CONTINUOUS
 62
     7
 10
247.3504839685
 20
485.5655584877
 30
0.0
  0
VERTEX
  5
20F
  8
0
  6
CONTINUOUS
 62
     7
 10
247.9602788217
 20
480.7785798276
 30
0.0
  0
VERTEX
  5
210
  8
0
  6
CONTINUOUS
 62
     7
 10
248.9439883578
 20
476.0797888656
 30
0.0
  0
VERTEX
  5
211
  8
0
  6
CONTINUOUS
 62
     7
 10
250.2749273974
 20
471.513279451
 30
0.0
  0
VERTEX
  5
212
  8
0
  6
CONTINUOUS
 62
     7
 10
251.9264107612
 20
467.1231454328
 30
0.0
  0
VERTEX
  5
213
  8
0
  6
CONTINUOUS
 62
     7
 10
253.8717532696
 20
462.95348066
 30
0.0
  0
VERTEX
  5
214
  8
0
  6
CONTINUOUS
 62
     7
 10
256.0842697433
 20
459.0483789819
 30
0.0
  0
VERTEX
  5
215
  8
0
  6
CONTINUOUS
 62
     7
 10
258.4860307074
 20
455.5205531051
 30
0.0
  0
VERTEX
  5
216
  8
0
  6
CONTINUOUS
 62
     7
 10
261.0936412241
 20
452.3306621351
 30
0.0
  0
VERTEX
  5
217
  8
0
  6
CONTINUOUS
 62
     7
 10
263.8819854161
 20
449.5202068499
 30
0.0
  0
VERTEX
  5
218
  8
0
  6
CONTINUOUS
 62
     7
 10
266.8259474059
 20
447.1306880275
 30
0.0
  0
VERTEX
  5
219
  8
0
  6
CONTINUOUS
 62
     7
 10
269.23187003
 20
445.5755432573
 30
0.0
  0
VERTEX
  5
21A
  8
0
  6
CONTINUOUS
 62
     7
 10
271.7061749501
 20
444.3260129992
 30
0.0
  0
VERTEX
  5
21B
  8
0
  6
CONTINUOUS
 62
     7
 10
274.2366795014
 20
443.4022275507
 30
0.0
  0
VERTEX
  5
21C
  8
0
  6
CONTINUOUS
 62
     7
 10
276.8112010188
 20
442.8243172087
 30
0.0
  0
VERTEX
  5
21D
  8
0
  6
CONTINUOUS
 62
     7
 10
279.4651639293
 20
442.6120726215
 30
0.0
  0
VERTEX
  5
21E
  8
0
  6
CONTINUOUS
 62
     7
 10
282.1395314415
 20
442.7989261151
 30
0.0
  0
VERTEX
  5
21F
  8
0
  6
CONTINUOUS
 62
     7
 10
284.8275180602
 20
443.3692874767
 30
0.0
  0
VERTEX
  5
220
  8
0
  6
CONTINUOUS
 62
     7
 10
287.5280405485
 20
444.2729815386
 30
0.0
  0
VERTEX
  5
221
  8
0
  6
CONTINUOUS
 62
     7
 10
290.2402551461
 20
445.4583806771
 30
0.0
  0
VERTEX
  5
222
  8
0
  6
CONTINUOUS
 62
     7
 10
293.8082378402
 20
447.3505545722
 30
0.0
  0
VERTEX
  5
223
  8
0
  6
CONTINUOUS
 62
     7
 10
297.3929290709
 20
449.5213403137
 30
0.0
  0
VERTEX
  5
224
  8
0
  6
CONTINUOUS
 62
     7
 10
300.9924340557
 20
451.854800828
 30
0.0
  0
VERTEX
  5
225
  8
0
  6
CONTINUOUS
 62
     7
 10
304.4404034373
 20
454.1274329434
 30
0.0
  0
VERTEX
  5
226
  8
0
  6
CONTINUOUS
 62
     7
 10
307.8984960611
 20
456.3418152392
 30
0.0
  0
VERTEX
  5
227
  8
0
  6
CONTINUOUS
 62
     7
 10
311.3650639573
 20
458.3971125128
 30
0.0
  0
VERTEX
  5
228
  8
0
  6
CONTINUOUS
 62
     7
 10
314.8384591563
 20
460.1924895614
 30
0.0
  0
VERTEX
  5
229
  8
0
  6
CONTINUOUS
 62
     7
 10
317.5712714235
 20
461.3551147652
 30
0.0
  0
VERTEX
  5
22A
  8
0
  6
CONTINUOUS
 62
     7
 10
320.3064817748
 20
462.2461177571
 30
0.0
  0
VERTEX
  5
22B
  8
0
  6
CONTINUOUS
 62
     7
 10
323.0432908489
 20
462.8165875845
 30
0.0
  0
VERTEX
  5
22C
  8
0
  6
CONTINUOUS
 62
     7
 10
325.7808992843
 20
463.0176132942
 30
0.0
  0
VERTEX
  5
22D
  8
0
  6
CONTINUOUS
 62
     7
 10
328.568277441
 20
462.8093647575
 30
0.0
  0
VERTEX
  5
22E
  8
0
  6
CONTINUOUS
 62
     7
 10
331.3548118373
 20
462.2190375633
 30
0.0
  0
VERTEX
  5
22F
  8
0
  6
CONTINUOUS
 62
     7
 10
334.1396587126
 20
461.2982593352
 30
0.0
  0
VERTEX
  5
230
  8
0
  6
CONTINUOUS
 62
     7
 10
336.9219743066
 20
460.0986576972
 30
0.0
  0
VERTEX
  5
231
  8
0
  6
CONTINUOUS
 62
     7
 10
339.7009148587
 20
458.6718602729
 30
0.0
  0
VERTEX
  5
232
  8
0
  6
CONTINUOUS
 62
     7
 10
343.3334924109
 20
456.5459978812
 30
0.0
  0
VERTEX
  5
233
  8
0
  6
CONTINUOUS
 62
     7
 10
346.9569405565
 20
454.2349990417
 30
0.0
  0
VERTEX
  5
234
  8
0
  6
CONTINUOUS
 62
     7
 10
350.5693645129
 20
451.854800828
 30
0.0
  0
VERTEX
  5
235
  8
0
  6
CONTINUOUS
 62
     7
 10
354.0055626828
 20
449.6247540957
 30
0.0
  0
VERTEX
  5
236
  8
0
  6
CONTINUOUS
 62
     7
 10
357.4283416713
 20
447.5381279491
 30
0.0
  0
VERTEX
  5
237
  8
0
  6
CONTINUOUS
 62
     7
 10
360.8360535088
 20
445.6957575909
 30
0.0
  0
VERTEX
  5
238
  8
0
  6
CONTINUOUS
 62
     7
 10
364.2270502256
 20
444.1984782238
 30
0.0
  0
VERTEX
  5
239
  8
0
  6
CONTINUOUS
 62
     7
 10
366.8786050974
 20
443.3298225267
 30
0.0
  0
VERTEX
  5
23A
  8
0
  6
CONTINUOUS
 62
     7
 10
369.5180242103
 20
442.7853689531
 30
0.0
  0
VERTEX
  5
23B
  8
0
  6
CONTINUOUS
 62
     7
 10
372.1442417313
 20
442.6124122706
 30
0.0
  0
VERTEX
  5
23C
  8
0
  6
CONTINUOUS
 62
     7
 10
374.7505975498
 20
442.8243172087
 30
0.0
  0
VERTEX
  5
23D
  8
0
  6
CONTINUOUS
 62
     7
 10
377.3715580246
 20
443.4159974808
 30
0.0
  0
VERTEX
  5
23E
  8
0
  6
CONTINUOUS
 62
     7
 10
379.9466567343
 20
444.3658650392
 30
0.0
  0
VERTEX
  5
23F
  8
0
  6
CONTINUOUS
 62
     7
 10
382.4630343498
 20
445.6526714858
 30
0.0
  0
VERTEX
  5
240
  8
0
  6
CONTINUOUS
 62
     7
 10
384.9078315418
 20
447.2551684221
 30
0.0
  0
VERTEX
  5
241
  8
0
  6
CONTINUOUS
 62
     7
 10
387.2681889812
 20
449.1521074498
 30
0.0
  0
VERTEX
  5
242
  8
0
  6
CONTINUOUS
 62
     7
 10
390.2099924177
 20
452.0459993903
 30
0.0
  0
VERTEX
  5
243
  8
0
  6
CONTINUOUS
 62
     7
 10
392.9560648418
 20
455.3606619877
 30
0.0
  0
VERTEX
  5
244
  8
0
  6
CONTINUOUS
 62
     7
 10
395.4775288253
 20
459.0483789819
 30
0.0
  0
VERTEX
  5
245
  8
0
  6
CONTINUOUS
 62
     7
 10
397.690045299
 20
462.95348066
 30
0.0
  0
VERTEX
  5
246
  8
0
  6
CONTINUOUS
 62
     7
 10
399.6353878075
 20
467.1231454328
 30
0.0
  0
VERTEX
  5
247
  8
0
  6
CONTINUOUS
 62
     7
 10
401.2868711712
 20
471.513279451
 30
0.0
  0
VERTEX
  5
248
  8
0
  6
CONTINUOUS
 62
     7
 10
402.6178102108
 20
476.0797888656
 30
0.0
  0
VERTEX
  5
249
  8
0
  6
CONTINUOUS
 62
     7
 10
403.6015197469
 20
480.7785798276
 30
0.0
  0
VERTEX
  5
24A
  8
0
  6
CONTINUOUS
 62
     7
 10
404.2113146002
 20
485.5655584877
 30
0.0
  0
VERTEX
  5
24B
  8
0
  6
CONTINUOUS
 62
     7
 10
404.4205095911
 20
490.396630997
 30
0.0
  0
VERTEX
  5
24C
  8
0
  6
CONTINUOUS
 62
     7
 10
404.2113146002
 20
495.2277035062
 30
0.0
  0
VERTEX
  5
24D
  8
0
  6
CONTINUOUS
 62
     7
 10
403.6015197469
 20
500.0146821664
 30
0.0
  0
VERTEX
  5
24E
  8
0
  6
CONTINUOUS
 62
     7
 10
402.6178102108
 20
504.7134731283
 30
0.0
  0
VERTEX
  5
24F
  8
0
  6
CONTINUOUS
 62
     7
 10
401.2868711712
 20
509.2799825429
 30
0.0
  0
VERTEX
  5
250
  8
0
  6
CONTINUOUS
 62
     7
 10
399.6353878075
 20
513.6701165612
 30
0.0
  0
VERTEX
  5
251
  8
0
  6
CONTINUOUS
 62
     7
 10
397.690045299
 20
517.8397813339
 30
0.0
  0
VERTEX
  5
252
  8
0
  6
CONTINUOUS
 62
     7
 10
395.4775288253
 20
521.744883012
 30
0.0
  0
VERTEX
  5
253
  8
0
  6
CONTINUOUS
 62
     7
 10
393.0757678612
 20
525.2727088888
 30
0.0
  0
VERTEX
  5
254
  8
0
  6
CONTINUOUS
 62
     7
 10
390.4681573445
 20
528.4625998588
 30
0.0
  0
VERTEX
  5
255
  8
0
  6
CONTINUOUS
 62
     7
 10
387.6798131525
 20
531.273055144
 30
0.0
  0
VERTEX
  5
256
  8
0
  6
CONTINUOUS
 62
     7
 10
384.7358511627
 20
533.6625739665
 30
0.0
  0
VERTEX
  5
257
  8
0
  6
CONTINUOUS
 62
     7
 10
382.3299285387
 20
535.2177187367
 30
0.0
  0
VERTEX
  5
258
  8
0
  6
CONTINUOUS
 62
     7
 10
379.8556236185
 20
536.4672489947
 30
0.0
  0
VERTEX
  5
259
  8
0
  6
CONTINUOUS
 62
     7
 10
377.3251190672
 20
537.3910344433
 30
0.0
  0
VERTEX
  5
25A
  8
0
  6
CONTINUOUS
 62
     7
 10
374.7505975498
 20
537.9689447852
 30
0.0
  0
VERTEX
  5
25B
  8
0
  6
CONTINUOUS
 62
     7
 10
372.0966346393
 20
538.1811893724
 30
0.0
  0
VERTEX
  5
25C
  8
0
  6
CONTINUOUS
 62
     7
 10
369.4222671271
 20
537.9943358788
 30
0.0
  0
VERTEX
  5
25D
  8
0
  6
CONTINUOUS
 62
     7
 10
366.7342805084
 20
537.4239745173
 30
0.0
  0
VERTEX
  5
25E
  8
0
  6
CONTINUOUS
 62
     7
 10
364.0337580201
 20
536.5202804553
 30
0.0
  0
VERTEX
  5
25F
  8
0
  6
CONTINUOUS
 62
     7
 10
361.3215434225
 20
535.3348813168
 30
0.0
  0
VERTEX
  5
260
  8
0
  6
CONTINUOUS
 62
     7
 10
357.7535607284
 20
533.4427074218
 30
0.0
  0
VERTEX
  5
261
  8
0
  6
CONTINUOUS
 62
     7
 10
354.1688694977
 20
531.2719216803
 30
0.0
  0
VERTEX
  5
262
  8
0
  6
CONTINUOUS
 62
     7
 10
350.5693645129
 20
528.9384611659
 30
0.0
  0
VERTEX
  5
263
  8
0
  6
CONTINUOUS
 62
     7
 10
347.1213951313
 20
526.6658290505
 30
0.0
  0
VERTEX
  5
264
  8
0
  6
CONTINUOUS
 62
     7
 10
343.6633025075
 20
524.4514467547
 30
0.0
  0
VERTEX
  5
265
  8
0
  6
CONTINUOUS
 62
     7
 10
340.1967346113
 20
522.3961494812
 30
0.0
  0
VERTEX
  5
266
  8
0
  6
CONTINUOUS
 62
     7
 10
336.7233394123
 20
520.6007724325
 30
0.0
  0
VERTEX
  5
267
  8
0
  6
CONTINUOUS
 62
     7
 10
333.9905271451
 20
519.4381472288
 30
0.0
  0
VERTEX
  5
268
  8
0
  6
CONTINUOUS
 62
     7
 10
331.2553167938
 20
518.5471442368
 30
0.0
  0
VERTEX
  5
269
  8
0
  6
CONTINUOUS
 62
     7
 10
328.5185077197
 20
517.9766744095
 30
0.0
  0
VERTEX
  5
26A
  8
0
  6
CONTINUOUS
 62
     7
 10
325.7808992843
 20
517.7756486997
 30
0.0
  0
SEQEND
  5
26D
  8
0
  6
CONTINUOUS
 62
     7
  0
CIRCLE
  5
B8
  8
0
  6
CONTINUOUS
 62
     7
 10
295.7808992843
 20
460.396630997
 30
0.0
 40
1.0
  0
CIRCLE
  5
B9
  8
0
  6
CONTINUOUS
 62
     7
 10
295.7808992843
 20
520.396630997
 30
0.0
 40
1.0
  0
TEXT
  5
BA
  8
0
  6
CONTINUOUS
 62
     7
 10
0.0
 20
23.6164265559
 30
0.0
 40
12.74318
  1
SolidWorks Student Edition.
 41
0.6740740741
 11
0.0
 21
19.11477
 31
0.0
 73
     1
  0
TEXT
  5
BB
  8
0
  6
CONTINUOUS
 62
     7
 10
0.0
 20
4.5016565559
 30
0.0
 40
12.74318
  1
For Academic Use Only.
 41
0.6522727273
 11
0.0
 21
0.0
 31
0.0
 73
     1
  0
ENDSEC
  0
EOF
